<?xml version="1.0" encoding="utf-8"?>
<!-- Generator: Adobe Illustrator 25.2.1, SVG Export Plug-In . SVG Version: 6.00 Build 0)  -->
<svg version="1.1" id="Warstwa_1" xmlns="http://www.w3.org/2000/svg" xmlns:xlink="http://www.w3.org/1999/xlink" x="0px" y="0px"
	 viewBox="0 0 225.3 242.5" style="enable-background:new 0 0 225.3 242.5;" xml:space="preserve">
<style type="text/css">
	.st0{opacity:0.14;fill:#006633;}
	.st1{stroke:#000000;stroke-width:0.25;stroke-miterlimit:10;}
</style>
<circle class="st0" cx="110.3" cy="120.9" r="84.2"/>
<g>
	<path d="M165.5,184.5c-14.8,12.9-34.1,20.7-55.3,20.7c-21.2,0-40.5-7.8-55.3-20.7c4.4-14.6,11.1-27.1,19.4-36.5
		c2.4-2.7,6.6-2.8,9.2-0.3c6.8,6.8,16.3,11,26.7,11c10.4,0,19.8-4.2,26.7-11c2.6-2.6,6.8-2.5,9.2,0.3
		C154.5,157.4,161.2,170,165.5,184.5z"/>
	<g>
		<path d="M145.2,113.2l-3.4,3.4c0.2,1.4,0.3,2.9,0.3,4.4c0,6.8-2.1,13-5.7,18.2c-5.8,8.3-15.3,13.7-26.2,13.7
			c-10.9,0-20.4-5.4-26.2-13.7c-3.6-5.2-5.7-11.4-5.7-18.2c0-17.6,14.3-31.9,31.9-31.9c0.6,0,1.1,0,1.7,0l4.6-4.6
			c1.5-1.5,3.5-2.3,5.5-2.3s4,0.8,5.5,2.3l17.7,17.7C148.2,105.2,148.2,110.2,145.2,113.2z"/>
	</g>
	<g>
		<path class="st1" d="M169.8,94.6c-2.3,3.8-7.2,4.9-11,2.6c-2.1-1.3-4.9-1.6-8-1c-1.7,0.3-3.3-0.2-4.5-1.4l-4.7-4.7
			c-2.7-2.7-1.6-7.4,2.1-8.5c8.5-2.6,16.7-2.2,23.5,2.1C171,85.9,172.1,90.8,169.8,94.6z"/>
	</g>
</g>
</svg>
