<?xml version="1.0" encoding="utf-8"?>
<!-- Generator: Adobe Illustrator 25.2.1, SVG Export Plug-In . SVG Version: 6.00 Build 0)  -->
<svg version="1.1" id="Warstwa_1" xmlns="http://www.w3.org/2000/svg" xmlns:xlink="http://www.w3.org/1999/xlink" x="0px" y="0px"
	 viewBox="0 0 595.3 841.9" style="enable-background:new 0 0 595.3 841.9;" xml:space="preserve">
<style type="text/css">
	.st0{fill:#55BAE7;}
	.st1{fill:#E63453;}
</style>
<g>
	<path class="st0" d="M176.9,405.8c-0.3,0-0.5-0.1-0.7-0.3c-0.2-0.2-0.3-0.4-0.3-0.7v-3.3c0-0.4,0.1-0.7,0.2-0.9
		c0.2-0.2,0.3-0.4,0.3-0.5l13-16.4h-12.3c-0.3,0-0.5-0.1-0.7-0.3c-0.2-0.2-0.3-0.4-0.3-0.7v-3.3c0-0.3,0.1-0.5,0.3-0.7
		c0.2-0.2,0.4-0.3,0.7-0.3h19c0.3,0,0.5,0.1,0.7,0.3c0.2,0.2,0.3,0.4,0.3,0.7v3.2c0,0.3-0.1,0.5-0.2,0.8c-0.1,0.2-0.2,0.4-0.3,0.6
		l-12.7,16.4h12.6c0.3,0,0.5,0.1,0.7,0.3c0.2,0.2,0.3,0.4,0.3,0.7v3.3c0,0.3-0.1,0.5-0.3,0.7c-0.2,0.2-0.4,0.3-0.7,0.3H176.9z"/>
	<path class="st0" d="M207.6,405.8c-0.3,0-0.5-0.1-0.7-0.3c-0.2-0.2-0.3-0.4-0.3-0.7v-25.2c0-0.3,0.1-0.5,0.3-0.7
		c0.2-0.2,0.4-0.3,0.7-0.3h11.5c2.1,0,3.9,0.3,5.3,0.9c1.4,0.6,2.4,1.5,3,2.6c0.7,1.1,1,2.5,1,4c0,1-0.2,1.8-0.5,2.5
		c-0.3,0.7-0.8,1.3-1.3,1.8c-0.5,0.5-1,0.8-1.5,1c1,0.5,1.9,1.2,2.7,2.3c0.8,1.1,1.1,2.3,1.1,3.8c0,1.6-0.4,3.1-1.1,4.3
		c-0.7,1.2-1.8,2.2-3.2,2.8c-1.4,0.7-3.2,1-5.2,1H207.6z M212.8,389.6h5.6c1.2,0,2.1-0.3,2.7-0.9c0.6-0.6,0.9-1.4,0.9-2.3
		c0-1-0.3-1.7-0.9-2.3c-0.6-0.6-1.5-0.9-2.7-0.9h-5.6V389.6z M212.8,401.3h5.9c1.3,0,2.2-0.4,2.9-1.1c0.6-0.7,1-1.6,1-2.5
		c0-1-0.3-1.9-1-2.5c-0.7-0.7-1.6-1-2.9-1h-5.9V401.3z"/>
	<path class="st0" d="M242.4,406.2c-2.4,0-4.4-0.4-6.1-1.2c-1.7-0.8-3-1.9-4-3.5c-1-1.6-1.5-3.5-1.6-5.9c0-1.1,0-2.2,0-3.3
		c0-1.1,0-2.2,0-3.4c0.1-2.3,0.6-4.3,1.6-5.9c1-1.6,2.3-2.8,4-3.6c1.7-0.8,3.7-1.2,6-1.2c2.3,0,4.3,0.4,6,1.2c1.7,0.8,3.1,2,4.1,3.6
		c1,1.6,1.5,3.5,1.6,5.9c0.1,1.1,0.1,2.3,0.1,3.4c0,1.1,0,2.2-0.1,3.3c-0.1,2.4-0.6,4.4-1.6,5.9c-1,1.6-2.3,2.7-4,3.5
		C246.8,405.8,244.7,406.2,242.4,406.2z M242.4,401.2c1.5,0,2.7-0.5,3.7-1.4c1-0.9,1.5-2.4,1.5-4.4c0.1-1.1,0.1-2.2,0.1-3.2
		c0-1,0-2-0.1-3.2c0-1.3-0.3-2.4-0.7-3.3c-0.5-0.9-1.1-1.5-1.8-1.9c-0.8-0.4-1.6-0.6-2.7-0.6s-1.9,0.2-2.7,0.6
		c-0.8,0.4-1.4,1-1.8,1.9c-0.5,0.9-0.7,2-0.8,3.3c0,1.1,0,2.2,0,3.2c0,1,0,2.1,0,3.2c0.1,2,0.6,3.5,1.6,4.4
		C239.7,400.7,240.9,401.2,242.4,401.2z"/>
	<path class="st0" d="M257.9,405.8c-0.3,0-0.5-0.1-0.7-0.3c-0.2-0.2-0.3-0.4-0.3-0.7v-25.2c0-0.3,0.1-0.5,0.3-0.7
		c0.2-0.2,0.4-0.3,0.7-0.3h3.6c0.4,0,0.7,0.1,0.9,0.3s0.3,0.4,0.4,0.5l7.1,13.1l7.2-13.1c0.1-0.1,0.2-0.3,0.4-0.5s0.5-0.3,0.9-0.3
		h3.6c0.3,0,0.5,0.1,0.7,0.3c0.2,0.2,0.3,0.4,0.3,0.7v25.2c0,0.3-0.1,0.5-0.3,0.7c-0.2,0.2-0.4,0.3-0.7,0.3h-4
		c-0.3,0-0.5-0.1-0.7-0.3c-0.2-0.2-0.3-0.4-0.3-0.7v-15.7l-4.9,9.2c-0.1,0.2-0.3,0.4-0.5,0.6c-0.2,0.2-0.5,0.3-0.8,0.3H269
		c-0.3,0-0.6-0.1-0.8-0.3c-0.2-0.2-0.4-0.4-0.5-0.6l-4.9-9.2v15.7c0,0.3-0.1,0.5-0.3,0.7c-0.2,0.2-0.4,0.3-0.7,0.3H257.9z"/>
	<path class="st0" d="M287.7,405.8c-0.3,0-0.5-0.1-0.7-0.3c-0.2-0.2-0.3-0.4-0.3-0.7v-25.2c0-0.3,0.1-0.5,0.3-0.7
		c0.2-0.2,0.4-0.3,0.7-0.3h11.5c2.1,0,3.9,0.3,5.3,0.9c1.4,0.6,2.4,1.5,3,2.6c0.7,1.1,1,2.5,1,4c0,1-0.2,1.8-0.5,2.5
		c-0.3,0.7-0.8,1.3-1.3,1.8c-0.5,0.5-1,0.8-1.5,1c1,0.5,1.9,1.2,2.7,2.3c0.8,1.1,1.1,2.3,1.1,3.8c0,1.6-0.4,3.1-1.1,4.3
		c-0.7,1.2-1.8,2.2-3.2,2.8c-1.4,0.7-3.2,1-5.2,1H287.7z M292.9,389.6h5.6c1.2,0,2.1-0.3,2.7-0.9c0.6-0.6,0.9-1.4,0.9-2.3
		c0-1-0.3-1.7-0.9-2.3c-0.6-0.6-1.5-0.9-2.7-0.9h-5.6V389.6z M292.9,401.3h5.9c1.3,0,2.2-0.4,2.9-1.1c0.6-0.7,1-1.6,1-2.5
		c0-1-0.3-1.9-1-2.5c-0.7-0.7-1.6-1-2.9-1h-5.9V401.3z"/>
	<path class="st0" d="M318.8,405.8c-0.3,0-0.5-0.1-0.7-0.3c-0.2-0.2-0.3-0.4-0.3-0.7v-8.5l-9.1-16.4c0-0.1-0.1-0.1-0.1-0.2
		c0-0.1,0-0.1,0-0.2c0-0.2,0.1-0.4,0.3-0.6c0.2-0.2,0.4-0.3,0.6-0.3h4.1c0.4,0,0.6,0.1,0.9,0.3c0.2,0.2,0.3,0.3,0.4,0.5l6.1,10.7
		l6.1-10.7c0.1-0.2,0.2-0.3,0.4-0.5c0.2-0.2,0.5-0.3,0.9-0.3h4.1c0.2,0,0.4,0.1,0.6,0.3c0.2,0.2,0.3,0.4,0.3,0.6c0,0.1,0,0.1,0,0.2
		c0,0.1-0.1,0.1-0.1,0.2l-9.1,16.4v8.5c0,0.3-0.1,0.5-0.3,0.7c-0.2,0.2-0.4,0.3-0.7,0.3H318.8z"/>
	<path class="st1" d="M201.6,462c-0.5,0-1-0.2-1.3-0.5c-0.3-0.3-0.5-0.8-0.5-1.3v-47.3c0-0.5,0.2-1,0.5-1.3c0.3-0.3,0.8-0.5,1.3-0.5
		h6.6c0.7,0,1.3,0.2,1.6,0.5c0.3,0.3,0.6,0.6,0.7,0.8l19.4,30.3v-29.8c0-0.5,0.2-1,0.5-1.3c0.3-0.3,0.8-0.5,1.2-0.5h7.4
		c0.5,0,1,0.2,1.3,0.5c0.3,0.3,0.5,0.8,0.5,1.3v47.3c0,0.5-0.2,0.9-0.5,1.3c-0.3,0.4-0.8,0.5-1.3,0.5h-6.7c-0.7,0-1.2-0.2-1.6-0.5
		c-0.3-0.4-0.5-0.6-0.7-0.8l-19.3-29.4v28.9c0,0.5-0.2,1-0.5,1.3c-0.3,0.3-0.8,0.5-1.3,0.5H201.6z"/>
	<path class="st1" d="M246.5,462c-0.4,0-0.8-0.2-1.1-0.5c-0.3-0.3-0.4-0.7-0.4-1.1c0-0.2,0-0.5,0.1-0.7l17.3-46.8
		c0.1-0.5,0.4-1,0.9-1.4c0.4-0.4,1-0.6,1.8-0.6h9.3c0.8,0,1.4,0.2,1.8,0.6c0.4,0.4,0.7,0.8,0.9,1.4l17.3,46.8c0,0.2,0.1,0.4,0.1,0.7
		c0,0.4-0.1,0.7-0.4,1.1c-0.3,0.3-0.7,0.5-1.1,0.5h-7.6c-0.7,0-1.3-0.2-1.6-0.5c-0.3-0.3-0.6-0.7-0.7-0.9l-3.1-8.1h-20.5l-3.1,8.1
		c-0.1,0.3-0.3,0.6-0.7,0.9c-0.3,0.3-0.9,0.5-1.6,0.5H246.5z M262.1,443.1h15.1l-7.5-20.9L262.1,443.1z"/>
	<path class="st1" d="M309.3,462c-0.5,0-1-0.2-1.3-0.5c-0.3-0.3-0.5-0.8-0.5-1.3v-47.3c0-0.5,0.2-1,0.5-1.3c0.3-0.3,0.8-0.5,1.3-0.5
		h33c0.5,0,1,0.2,1.3,0.5c0.3,0.3,0.5,0.8,0.5,1.3v5.8c0,0.5-0.2,0.9-0.5,1.2c-0.3,0.3-0.8,0.5-1.3,0.5h-23.6v11.4h22
		c0.5,0,1,0.2,1.3,0.5c0.3,0.3,0.5,0.8,0.5,1.3v5.4c0,0.5-0.2,0.9-0.5,1.2c-0.3,0.3-0.8,0.5-1.3,0.5h-22v11.8h24.1
		c0.5,0,1,0.2,1.3,0.5c0.3,0.3,0.5,0.8,0.5,1.3v5.7c0,0.5-0.2,1-0.5,1.3c-0.3,0.3-0.8,0.5-1.3,0.5H309.3z"/>
	<path class="st1" d="M351.5,462c-0.5,0-1-0.2-1.3-0.5c-0.3-0.3-0.5-0.8-0.5-1.3v-47.3c0-0.5,0.2-1,0.5-1.3c0.3-0.3,0.8-0.5,1.3-0.5
		h7.7c0.5,0,1,0.2,1.3,0.5c0.3,0.3,0.5,0.8,0.5,1.3v16.6l15-17c0.2-0.3,0.5-0.6,1-0.9c0.5-0.3,1.1-0.5,1.9-0.5h8.8
		c0.4,0,0.8,0.2,1.1,0.5c0.3,0.3,0.4,0.7,0.4,1.1c0,0.3-0.1,0.6-0.3,0.9l-18.7,22l20.1,24.1c0.2,0.2,0.3,0.5,0.3,0.9
		c0,0.4-0.1,0.7-0.4,1.1c-0.3,0.3-0.7,0.5-1.1,0.5h-9.1c-0.9,0-1.5-0.2-2-0.6c-0.4-0.4-0.7-0.7-0.9-0.8L361,442v18.2
		c0,0.5-0.2,1-0.5,1.3c-0.3,0.3-0.8,0.5-1.3,0.5H351.5z"/>
	<path class="st1" d="M396.3,462c-0.5,0-1-0.2-1.3-0.5c-0.3-0.3-0.5-0.8-0.5-1.3v-47.3c0-0.5,0.2-1,0.5-1.3c0.3-0.3,0.8-0.5,1.3-0.5
		h19.3c6.1,0,10.8,1.4,14.3,4.2c3.5,2.8,5.2,6.8,5.2,12c0,3.5-0.8,6.5-2.5,8.9c-1.7,2.4-4,4.1-6.8,5.3l10.3,18.2
		c0.1,0.3,0.2,0.6,0.2,0.8c0,0.4-0.1,0.7-0.4,1.1c-0.3,0.3-0.7,0.5-1.1,0.5h-8.1c-0.9,0-1.5-0.2-2-0.7c-0.4-0.5-0.8-0.9-0.9-1.3
		l-8.9-16.7h-8.8v16.8c0,0.5-0.2,1-0.5,1.3c-0.3,0.3-0.8,0.5-1.3,0.5H396.3z M406.1,434.2h9.3c2.7,0,4.6-0.6,5.9-1.8
		c1.3-1.2,1.9-2.9,1.9-5.1s-0.6-3.9-1.9-5.2c-1.3-1.3-3.2-1.9-6-1.9h-9.3V434.2z"/>
	<path class="st1" d="M441.9,462c-0.4,0-0.8-0.2-1.1-0.5c-0.3-0.3-0.4-0.7-0.4-1.1c0-0.2,0-0.5,0.1-0.7l17.3-46.8
		c0.1-0.5,0.4-1,0.9-1.4c0.4-0.4,1-0.6,1.8-0.6h9.3c0.8,0,1.4,0.2,1.8,0.6c0.4,0.4,0.7,0.8,0.9,1.4l17.3,46.8c0,0.2,0.1,0.4,0.1,0.7
		c0,0.4-0.1,0.7-0.4,1.1c-0.3,0.3-0.7,0.5-1.1,0.5h-7.6c-0.7,0-1.3-0.2-1.6-0.5c-0.3-0.3-0.6-0.7-0.7-0.9l-3.1-8.1h-20.5l-3.1,8.1
		c-0.1,0.3-0.3,0.6-0.7,0.9c-0.3,0.3-0.9,0.5-1.6,0.5H441.9z M457.5,443.1h15.1l-7.5-20.9L457.5,443.1z"/>
	<path class="st1" d="M494.2,462c-0.5,0-1-0.2-1.3-0.5c-0.3-0.3-0.5-0.8-0.5-1.3v-47.3c0-0.5,0.2-1,0.5-1.3c0.3-0.3,0.8-0.5,1.3-0.5
		h6.6c0.7,0,1.3,0.2,1.6,0.5c0.3,0.3,0.6,0.6,0.7,0.8l19.4,30.3v-29.8c0-0.5,0.2-1,0.5-1.3c0.3-0.3,0.8-0.5,1.2-0.5h7.4
		c0.5,0,1,0.2,1.3,0.5c0.3,0.3,0.5,0.8,0.5,1.3v47.3c0,0.5-0.2,0.9-0.5,1.3c-0.3,0.4-0.8,0.5-1.3,0.5h-6.7c-0.7,0-1.2-0.2-1.6-0.5
		c-0.3-0.4-0.5-0.6-0.7-0.8l-19.3-29.4v28.9c0,0.5-0.2,1-0.5,1.3c-0.3,0.3-0.8,0.5-1.3,0.5H494.2z"/>
</g>
<g>
	<path class="st0" d="M179.2,429.1c-8.4-21-27.2-34.7-48.1-37.6c-0.1-0.2-0.1-0.4-0.2-0.6l-3.1-7.9c-1.8-4.4-6-7.1-10.5-7.1
		c-1.4,0-2.8,0.3-4.2,0.8l-6,2.4l-20.8,8.3l-7.4,2.9c-5.8,2.3-8.7,8.9-6.3,14.7l3.1,7.9c0.1,0.2,0.2,0.4,0.3,0.6
		c-7.2,8.9-11.7,19.7-13,31.1c-0.4,3.2,4.1,4.5,5.4,1.5c4.4-10.2,12.6-18.6,23.7-23.1c22.2-8.9,47.4,2,56.2,24.2
		c8.8,22.2-2,47.4-24.2,56.2c-2.9,1.1-5.8,2-8.7,2.5c-3.2,0.6-3.1,5.2,0.1,5.6c9.8,1.3,20.1,0.1,30-3.8
		C176.5,495.4,191.6,460.2,179.2,429.1z"/>
	<g>
		<g>
			<path class="st1" d="M123.1,339.1c0,4.6-2.9,8.5-7,10.1c-0.2,0.1-0.4,0.2-0.6,0.3c-4.8,1.9-8.1,9.4-8.7,19.4
				c-0.1,1.1-0.8,2-1.8,2.4l-16.5,6.6c-1.8,0.7-3.8-0.6-3.8-2.5c0,0,0,0,0,0c-0.8-23,7.7-40.3,22.6-46.3c1.6-0.6,3.2-0.9,4.8-0.8h0
				C118.2,328.3,123.1,333.2,123.1,339.1z"/>
		</g>
		<g>
			<circle class="st1" cx="108.1" cy="463.3" r="31.2"/>
		</g>
	</g>
</g>
</svg>