<?xml version="1.0" standalone="no"?>
<!DOCTYPE svg PUBLIC "-//W3C//DTD SVG 20010904//EN"
 "http://www.w3.org/TR/2001/REC-SVG-20010904/DTD/svg10.dtd">
<svg version="1.0" xmlns="http://www.w3.org/2000/svg"
 width="573.000000pt" height="90.000000pt" viewBox="0 0 573.000000 90.000000"
 preserveAspectRatio="xMidYMid meet">

<g transform="translate(0.000000,90.000000) scale(0.100000,-0.100000)"
fill="#000000" stroke="none">
<path d="M468 699 l32 -10 0 -188 c0 -197 -1 -202 -45 -214 -11 -3 48 -5 130
-4 125 2 156 5 178 20 38 25 60 72 53 113 -7 34 -47 74 -74 74 -10 0 -4 11 18
29 31 25 35 35 35 74 0 57 -29 91 -90 106 -56 14 -286 14 -237 0z m222 -24
c58 -30 67 -90 21 -136 -26 -26 -36 -29 -90 -29 l-61 0 0 83 c0 46 3 87 7 90
12 13 94 7 123 -8z m-6 -195 c58 -22 83 -80 56 -131 -15 -27 -63 -49 -109 -49
-70 0 -71 2 -71 101 l0 89 49 0 c27 0 61 -4 75 -10z"/>
<path d="M1015 695 c-76 -27 -135 -114 -135 -200 0 -92 66 -183 149 -205 205
-55 349 205 197 356 -60 61 -131 77 -211 49z m140 -29 c44 -29 58 -63 63 -151
5 -97 -7 -140 -49 -181 -26 -25 -38 -29 -84 -29 -62 0 -88 18 -116 80 -25 54
-26 177 -1 225 25 51 78 83 125 77 21 -3 49 -12 62 -21z"/>
<path d="M1345 703 c44 -11 45 -18 45 -208 0 -190 -1 -197 -45 -208 -11 -2 14
-5 55 -5 60 0 70 2 49 9 -15 6 -30 20 -33 32 -9 33 -7 307 2 307 4 0 43 -79
87 -175 43 -96 79 -175 80 -175 1 0 38 79 81 175 43 96 82 175 87 175 9 0 9
-301 -1 -317 -4 -7 -19 -16 -32 -22 -19 -7 -4 -10 65 -9 50 0 81 3 70 5 -44
11 -45 18 -45 208 0 190 1 197 45 208 11 2 -7 5 -40 6 l-60 0 -72 -161 c-39
-90 -75 -164 -80 -165 -4 -1 -41 72 -82 162 l-75 165 -60 -1 c-34 -1 -52 -4
-41 -6z"/>
<path d="M1915 703 c44 -12 45 -18 45 -208 0 -190 -1 -196 -45 -208 -11 -3 45
-5 125 -4 169 2 204 15 229 80 13 34 12 42 -3 74 -10 21 -28 39 -45 46 l-29
11 28 26 c38 36 47 73 27 116 -27 56 -63 68 -217 71 -74 1 -126 -1 -115 -4z
m234 -27 c29 -15 51 -53 51 -87 0 -11 -13 -34 -29 -50 -26 -26 -36 -29 -90
-29 l-61 0 0 90 0 90 50 0 c28 0 63 -6 79 -14z m32 -224 c68 -76 10 -158 -107
-150 l-49 3 -3 94 -3 93 67 -4 c60 -4 70 -7 95 -36z"/>
<path d="M2346 691 c18 -11 61 -65 103 -128 69 -106 71 -109 71 -173 0 -73 -5
-85 -40 -99 -19 -7 -4 -10 65 -9 50 0 81 3 70 5 -39 10 -45 23 -45 101 0 74 1
76 57 166 70 113 81 125 118 142 28 12 25 13 -50 13 -54 0 -73 -3 -59 -9 37
-15 34 -36 -18 -122 -27 -46 -52 -85 -53 -87 -9 -8 -116 171 -111 185 3 8 16
19 28 24 16 6 -4 9 -72 9 l-95 1 31 -19z"/>
<path d="M3415 703 c41 -10 45 -29 45 -207 0 -94 -4 -176 -8 -183 -4 -7 -19
-16 -32 -22 -18 -7 20 -10 136 -10 l161 -1 12 41 c7 23 15 48 18 58 3 9 -5 0
-18 -19 -32 -46 -62 -60 -131 -60 -89 0 -88 -1 -88 106 l0 94 63 0 c66 0 92
-12 100 -45 3 -11 5 12 6 50 1 63 -1 67 -12 45 -11 -23 -19 -25 -85 -28 l-72
-3 0 86 0 85 78 0 c85 0 117 -14 125 -53 2 -12 5 -1 6 26 l1 47 -162 -1 c-90
-1 -154 -3 -143 -6z"/>
<path d="M3810 699 c13 -6 28 -15 32 -22 4 -7 8 -88 8 -182 0 -93 -4 -175 -8
-182 -4 -7 -19 -16 -32 -22 -19 -7 -4 -10 65 -10 86 0 89 0 58 14 l-33 14 0
91 c0 49 4 90 8 90 5 0 46 -39 92 -86 l85 -86 -24 -19 c-23 -19 -23 -19 80
-19 l104 0 -44 20 c-26 12 -86 61 -143 117 l-98 97 77 79 c43 43 94 87 113 97
l35 19 -80 0 c-58 0 -74 -3 -57 -9 12 -5 22 -17 22 -26 0 -17 -146 -164 -162
-164 -10 0 -10 151 0 167 4 7 19 16 32 22 19 7 4 10 -65 10 -69 0 -84 -3 -65
-10z"/>
<path d="M4265 703 c41 -10 45 -29 45 -208 0 -179 -4 -198 -45 -208 -11 -3 21
-5 70 -5 50 0 81 2 70 5 -35 8 -45 33 -45 115 l0 78 28 0 c23 0 37 -15 97
-100 l70 -100 125 1 c96 0 119 3 98 11 -34 12 -36 34 -8 89 l21 40 82 -3 82
-3 17 -35 c24 -49 23 -79 -4 -90 -17 -6 1 -9 62 -9 70 0 81 2 62 12 -27 13
-42 40 -110 202 -28 66 -60 142 -72 170 l-21 50 -83 -193 c-46 -106 -92 -202
-102 -213 -14 -16 -27 -20 -52 -15 -44 7 -55 16 -124 111 l-59 79 35 18 c46
23 66 54 66 99 0 48 -43 94 -97 102 -43 8 -239 7 -208 0z m218 -44 c57 -71 9
-159 -88 -159 l-35 0 0 89 c0 62 4 91 13 95 26 12 92 -3 110 -25z m430 -137
l35 -82 -75 0 c-72 0 -74 1 -67 22 12 40 64 151 69 147 2 -3 19 -41 38 -87z"/>
<path d="M5140 699 c59 -24 60 -27 60 -214 0 -180 -2 -187 -45 -198 -11 -2 14
-5 55 -5 41 0 66 2 55 5 -40 9 -45 30 -45 180 0 79 4 143 9 143 5 0 69 -73
142 -162 l134 -163 5 197 c3 108 7 199 10 202 3 3 17 9 30 15 20 8 9 10 -50 9
-41 0 -65 -3 -53 -5 40 -8 44 -24 41 -174 l-3 -143 -129 162 -130 162 -55 -1
c-47 0 -52 -2 -31 -10z"/>
<path d="M181 528 c1 -24 4 -33 6 -21 7 36 27 44 97 41 l65 -3 -94 -128 c-52
-70 -95 -130 -95 -132 0 -3 56 -5 125 -5 l125 0 -1 43 c-1 23 -4 33 -6 22 -10
-39 -23 -45 -99 -45 -41 0 -74 2 -74 5 0 3 40 59 88 123 49 64 92 123 96 130
6 9 -20 12 -113 12 l-121 0 1 -42z"/>
<path d="M2825 551 c-35 -16 -37 -18 -17 -23 21 -6 22 -11 22 -117 0 -106 -1
-112 -22 -121 -17 -6 -3 -9 52 -9 62 1 70 2 48 11 -28 10 -28 10 -28 108 0 93
1 99 25 114 29 19 66 21 83 4 8 -8 12 -48 12 -115 0 -98 -1 -104 -22 -113 -17
-6 -5 -9 47 -9 58 0 66 2 48 11 -22 10 -23 17 -23 109 0 108 -9 142 -40 159
-28 15 -61 6 -99 -26 l-31 -26 0 31 c0 35 -1 36 -55 12z"/>
<path d="M3185 561 c-31 -13 -47 -37 -43 -63 4 -31 32 -30 36 2 5 35 20 50 51
50 34 0 51 -17 51 -51 0 -24 -9 -32 -67 -61 -77 -37 -100 -69 -83 -112 5 -15
21 -32 36 -38 22 -10 32 -9 67 10 l41 23 17 -22 c18 -25 46 -20 75 12 18 20
18 20 -9 14 l-27 -7 0 100 c0 121 -11 142 -80 148 -25 2 -54 0 -65 -5z m95
-166 c0 -51 -2 -56 -31 -70 -28 -15 -33 -15 -55 0 -28 18 -32 55 -6 77 19 17
73 47 85 48 4 0 7 -25 7 -55z"/>
</g>
</svg>
